<?xml version="1.0" encoding="iso-8859-1"?>
<!-- Generator: Adobe Illustrator 19.0.0, SVG Export Plug-In . SVG Version: 6.00 Build 0)  -->
<svg version="1.1" id="Capa_1" xmlns="http://www.w3.org/2000/svg" xmlns:xlink="http://www.w3.org/1999/xlink" x="0px" y="0px"
	 viewBox="0 0 464 464" style="enable-background:new 0 0 464 464;" xml:space="preserve">
<g>
	<path style="fill:#333333;" d="M216,80h32v96h-32V80z"/>
	<path style="fill:#333333;" d="M350.064,136.56l-67.152,67.152l-22.624-22.624L328,113.376L350.064,136.56z"/>
	<path style="fill:#333333;" d="M379.392,248H288v-32h94L379.392,248z"/>
	<path style="fill:#333333;" d="M326.328,348.96l-66.04-66.048l22.624-22.624l64.4,64.4L326.328,348.96z"/>
	<path style="fill:#333333;" d="M216,288h32v90.16h-32V288z"/>
	<path style="fill:#333333;" d="M116.688,324.688l64.4-64.4l22.624,22.624l-64.152,64.152L116.688,324.688z"/>
	<path style="fill:#333333;" d="M84.496,216H176v32H84.496V216z"/>
	<path style="fill:#333333;" d="M124.525,147.149l22.628-22.628l56.569,56.569l-22.628,22.628L124.525,147.149z"/>
</g>
<g>
	<path style="fill:#4D4D4D;" d="M232,64c-92.784,0-168,75.216-168,168s75.216,168,168,168s168-75.216,168-168S324.784,64,232,64z
		 M232,376c-79.529,0-144-64.471-144-144S152.471,88,232,88s144,64.471,144,144S311.529,376,232,376z"/>
	<circle style="fill:#4D4D4D;" cx="232" cy="232" r="64"/>
</g>
<path style="fill:#1A1A1A;" d="M450.544,274.896c-3.411,2.81-8.454,2.323-11.264-1.088c-2.81-3.411-2.323-8.454,1.088-11.264
	l17.464-14.4c1.593-1.303,3.629-1.937,5.68-1.768C463.8,241.6,464,236.8,464,232s-0.192-9.6-0.48-14.312l-8.8,11.064
	c-2.755,3.455-7.789,4.023-11.244,1.268c-3.455-2.755-4.023-7.789-1.268-11.244l0,0l14.12-17.688c1.298-1.613,3.17-2.659,5.224-2.92
	c-1.397-9.488-3.385-18.88-5.952-28.12l-6.4,12.704c-1.988,3.948-6.8,5.536-10.748,3.548c-3.948-1.988-5.536-6.8-3.548-10.748
	l10.152-20.224c0.942-1.859,2.572-3.277,4.544-3.952c-3.345-8.983-7.246-17.749-11.68-26.248l-3.6,13.728
	c-0.92,3.519-4.099,5.974-7.736,5.976c-0.688-0.002-1.374-0.09-2.04-0.264c-4.272-1.123-6.825-5.496-5.704-9.768l5.744-21.888
	c0.524-2.001,1.803-3.721,3.568-4.8c-5.116-8.108-10.726-15.894-16.8-23.312l-0.688,14.184c-0.205,4.268-3.727,7.621-8,7.616h-0.392
	c-4.413-0.211-7.819-3.96-7.608-8.374c0-0.001,0-0.002,0-0.002l1.096-22.6c0.099-2.051,0.998-3.981,2.504-5.376
	c-6.678-6.866-13.774-13.313-21.248-19.304l2.256,13.96c0.706,4.362-2.258,8.469-6.619,9.175c-0.002,0-0.003,0.001-0.005,0.001
	c-0.426,0.07-0.857,0.105-1.288,0.104c-3.918-0.008-7.253-2.853-7.88-6.72l-3.616-22.344c-0.321-2.049,0.167-4.143,1.36-5.84
	c-7.959-5.336-16.241-10.172-24.8-14.48l5.12,13.248c1.71,4.074-0.206,8.763-4.28,10.473c-4.074,1.71-8.763-0.206-10.473-4.28
	c-0.06-0.143-0.116-0.287-0.167-0.433l-8.16-21.064c-0.746-1.933-0.706-4.081,0.112-5.984c-8.905-3.596-18.027-6.632-27.312-9.088
	l7.784,11.952c2.406,3.703,1.357,8.655-2.344,11.064c-3.703,2.406-8.655,1.357-11.064-2.344l-12.344-18.96
	c-1.115-1.732-1.519-3.826-1.128-5.848c-9.444-1.671-18.982-2.753-28.56-3.24l10.048,10.048c3.178,3.07,3.266,8.134,0.196,11.312
	c-3.07,3.178-8.134,3.266-11.312,0.196c-0.067-0.064-0.132-0.13-0.196-0.196l-16-16c-1.444-1.453-2.27-3.408-2.304-5.456
	c-11.994,0.412-23.939,1.75-35.728,4l12.136,7.368c3.773,2.299,4.969,7.221,2.67,10.994c-1.452,2.383-4.04,3.837-6.83,3.838
	c-1.462,0.004-2.896-0.398-4.144-1.16L172.8,13.464c-1.766-1.076-3.043-2.798-3.56-4.8c-9.254,2.579-18.338,5.732-27.2,9.44
	l13.488,4.736c4.192,1.397,6.457,5.927,5.06,10.119c-1.397,4.192-5.927,6.457-10.119,5.06c-0.079-0.026-0.158-0.054-0.237-0.083
	l-21.36-7.536c-1.957-0.697-3.562-2.133-4.472-4c-8.487,4.471-16.687,9.468-24.552,14.96l14.048,1.816
	c4.383,0.558,7.484,4.563,6.926,8.946c-0.509,3.998-3.912,6.993-7.942,6.99c-0.348,0.003-0.695-0.019-1.04-0.064l-22.4-2.912
	c-2.053-0.271-3.919-1.333-5.2-2.96C76.868,59.281,69.878,65.835,63.312,72.8l14.08-1.12c4.418-0.349,8.283,2.95,8.632,7.368
	c0.349,4.418-2.95,8.283-7.368,8.632l-22.56,1.792h-0.64c-1.827-0.023-3.59-0.676-4.992-1.848c-6,7.508-11.528,15.382-16.552,23.576
	l13.656-4c4.237-1.253,8.687,1.167,9.94,5.404c1.253,4.237-1.167,8.687-5.404,9.94l-21.696,6.4
	c-0.737,0.221-1.502,0.334-2.272,0.336c-1.276-0.031-2.525-0.371-3.64-0.992c-4.312,8.599-8.082,17.459-11.288,26.528L25.728,148
	c3.886-2.103,8.741-0.658,10.844,3.228c2.103,3.886,0.658,8.741-3.228,10.844l0,0l-19.896,10.784
	c-1.167,0.633-2.473,0.966-3.8,0.968c-0.745-0.005-1.485-0.113-2.2-0.32c-2.386,9.268-4.192,18.675-5.408,28.168l10.76-9.16
	c3.365-2.872,8.42-2.473,11.292,0.892c2.872,3.365,2.473,8.42-0.892,11.292L5.944,219.352c-1.446,1.233-3.284,1.911-5.184,1.912
	c-0.168,0-0.32-0.096-0.488-0.104C0.112,224.752,0,228.36,0,232c0,6.024,0.304,12,0.752,17.888l8.632-11.2
	c2.702-3.497,7.727-4.142,11.224-1.44s4.142,7.727,1.44,11.224l0,0L8.216,266.4c-1.293,1.595-3.16,2.62-5.2,2.856
	c1.544,9.513,3.682,18.921,6.4,28.168l6.176-12.8c2.058-3.91,6.896-5.411,10.806-3.352c3.719,1.958,5.289,6.459,3.594,10.304
	L20.176,312c-0.903,1.867-2.503,3.303-4.456,4c3.464,8.947,7.485,17.668,12.04,26.112l3.44-13.848
	c0.982-4.308,5.271-7.003,9.579-6.021c4.308,0.982,7.003,5.271,6.021,9.579c-0.02,0.086-0.041,0.173-0.063,0.258l-5.4,21.976
	c-0.504,2.002-1.774,3.725-3.536,4.8c5.254,8.027,10.998,15.721,17.2,23.04l0.456-14.136c0.016-4.308,3.521-7.787,7.828-7.771
	c0.132,0,0.264,0.004,0.396,0.011c4.416,0.143,7.879,3.84,7.736,8.256c0,0,0,0,0,0l-0.736,22.608
	c-0.063,2.066-0.923,4.026-2.4,5.472c6.787,6.743,13.984,13.059,21.552,18.912l-2.472-13.92c-0.919-4.322,1.84-8.57,6.162-9.489
	c4.322-0.919,8.57,1.84,9.489,6.162c0.037,0.175,0.068,0.35,0.094,0.527l3.936,22.272c0.355,2.027-0.093,4.113-1.248,5.816
	c8.048,5.242,16.413,9.979,25.048,14.184l-5.344-13.224c-1.685-4.085,0.261-8.761,4.345-10.446
	c4.085-1.685,8.761,0.261,10.446,4.345c0.014,0.033,0.027,0.067,0.041,0.1l8.48,20.976c0.781,1.918,0.781,4.066,0,5.984
	c8.954,3.453,18.116,6.339,27.432,8.64l-7.952-11.8c-2.458-3.671-1.474-8.64,2.197-11.098c3.658-2.449,8.607-1.483,11.075,2.162
	l12.64,18.768c1.156,1.721,1.592,3.826,1.216,5.864c9.45,1.484,18.983,2.385,28.544,2.696l-10.144-9.824
	c-3.172-3.077-3.249-8.144-0.172-11.316c3.077-3.172,8.144-3.249,11.316-0.172l0,0l16.24,15.752c1.484,1.44,2.346,3.404,2.4,5.472
	c9.567-0.473,19.094-1.542,28.528-3.2l-12-7.536c-3.742-2.351-4.871-7.29-2.52-11.032c2.351-3.742,7.29-4.871,11.032-2.52
	l19.152,12.048c1.758,1.115,3.012,2.871,3.496,4.896c9.271-2.455,18.38-5.487,27.272-9.08l-13.336-4.912
	c-4.147-1.527-6.271-6.125-4.744-10.272s6.125-6.271,10.272-4.744l21.24,7.824c1.929,0.717,3.508,2.149,4.408,4
	c8.573-4.306,16.869-9.142,24.84-14.48l-14.08-2.048c-4.374-0.636-7.404-4.698-6.768-9.072s4.698-7.404,9.072-6.768l0,0l22.4,3.264
	c2.035,0.299,3.874,1.377,5.128,3.008c7.467-5.989,14.561-12.431,21.24-19.288l-14.112,0.904h-0.512
	c-4.418,0.139-8.113-3.33-8.252-7.748c-0.139-4.418,3.33-8.113,7.748-8.252l22.584-1.44c2.063-0.132,4.096,0.555,5.656,1.912
	c6.072-7.414,11.682-15.194,16.8-23.296l-13.64,3.8c-0.703,0.198-1.43,0.3-2.16,0.304c-4.418,0.009-8.008-3.565-8.017-7.983
	c-0.008-3.605,2.397-6.77,5.873-7.729l21.8-6.04c1.992-0.541,4.116-0.292,5.928,0.696c4.436-8.518,8.334-17.306,11.672-26.312
	l-12.656,6.6c-3.887,2.101-8.741,0.652-10.841-3.234c-2.101-3.887-0.652-8.741,3.234-10.841c0.068-0.037,0.137-0.073,0.207-0.108
	l20.056-10.464c1.836-0.954,3.972-1.152,5.952-0.552c2.568-9.243,4.556-18.637,5.952-28.128L450.544,274.896z M232,400
	c-92.784,0-168-75.216-168-168S139.216,64,232,64s168,75.216,168,168S324.784,400,232,400z"/>
<path d="M242.344,21.656c3.178,3.07,8.242,2.982,11.312-0.196c2.994-3.1,2.994-8.016,0-11.116L243.608,0.296
	C239.763,0.099,235.893,0,232,0c-2.672,0-5.312,0.112-8,0.2c0.034,2.048,0.86,4.003,2.304,5.456L242.344,21.656z"/>
<path d="M273.296,9.384l12.344,18.96c2.508,3.637,7.49,4.553,11.127,2.045c3.499-2.413,4.5-7.14,2.281-10.765l-7.784-11.952
	c-6.256-1.656-12.632-3.008-19.096-4.136C271.777,5.558,272.181,7.652,273.296,9.384L273.296,9.384z"/>
<path d="M318.464,22.744l8.152,21.104c1.471,4.166,6.041,6.351,10.207,4.88c4.166-1.471,6.351-6.041,4.88-10.207
	c-0.052-0.146-0.107-0.29-0.167-0.433l-5.12-13.248c-5.808-2.933-11.755-5.627-17.84-8.08
	C317.758,18.663,317.718,20.811,318.464,22.744L318.464,22.744z"/>
<path d="M363.496,67.504c0.627,3.867,3.962,6.712,7.88,6.72c0.431,0.001,0.862-0.034,1.288-0.104
	c4.362-0.703,7.328-4.809,6.625-9.171c0-0.002-0.001-0.003-0.001-0.005l-2.256-13.96c-5.104-4.096-10.352-8-15.792-11.664
	c-1.193,1.697-1.681,3.791-1.36,5.84L363.496,67.504z"/>
<path d="M394.68,98.264c-0.213,4.413,3.192,8.163,7.606,8.376c0.001,0,0.002,0,0.002,0h0.392c4.273,0.005,7.795-3.348,8-7.616
	l0.688-14.184c-4.144-5.048-8.528-9.88-13.072-14.56c-1.506,1.395-2.405,3.325-2.504,5.376L394.68,98.264z"/>
<path d="M424.576,112.928l-5.744,21.888c-1.121,4.272,1.432,8.645,5.704,9.768c0.666,0.174,1.352,0.262,2.04,0.264
	c3.637-0.002,6.816-2.457,7.736-5.976l3.6-13.728c-3.024-5.808-6.28-11.469-9.768-16.984
	C426.385,109.231,425.107,110.939,424.576,112.928L424.576,112.928z"/>
<path d="M445.048,155.344l-10.152,20.224c-1.988,3.948-0.4,8.76,3.548,10.748c3.948,1.988,8.76,0.4,10.748-3.548l6.4-12.704
	c-1.752-6.328-3.72-12.56-5.976-18.656C447.638,152.074,445.999,153.486,445.048,155.344L445.048,155.344z"/>
<path d="M442.176,218.776c-2.755,3.455-2.187,8.489,1.268,11.244c3.455,2.755,8.489,2.187,11.244-1.268l0,0l8.8-11.064
	c-0.4-6.581-1.067-13.088-2-19.52c-2.054,0.261-3.926,1.307-5.224,2.92L442.176,218.776z"/>
<path d="M440.368,262.544c-3.411,2.81-3.898,7.853-1.088,11.264c2.81,3.411,7.853,3.898,11.264,1.088l10.968-9.04
	c0.936-6.4,1.6-12.904,2-19.464c-2.051-0.169-4.087,0.465-5.68,1.768L440.368,262.544z"/>
<path d="M449.6,294.536L429.536,305c-3.887,2.101-5.335,6.954-3.234,10.841c2.057,3.807,6.769,5.288,10.634,3.342l12.656-6.6
	c2.256-6.08,4.216-12.296,5.96-18.6C453.572,293.383,451.436,293.582,449.6,294.536L449.6,294.536z"/>
<path d="M432,338.2l-21.792,6.088c-4.259,1.175-6.76,5.58-5.585,9.839c0.955,3.461,4.098,5.863,7.689,5.873
	c0.73-0.004,1.457-0.106,2.16-0.304l13.64-3.8c3.488-5.52,6.747-11.187,9.776-17C436.087,337.918,433.979,337.669,432,338.2
	L432,338.2z"/>
<path d="M383.08,378.72c-4.418,0.139-7.887,3.834-7.748,8.252c0.139,4.418,3.834,7.887,8.252,7.748h0.512l14.112-0.904
	c4.56-4.688,8.96-9.536,13.112-14.592c-1.56-1.357-3.593-2.044-5.656-1.912L383.08,378.72z"/>
<path d="M349.456,406.8c-4.374-0.636-8.436,2.394-9.072,6.768s2.394,8.436,6.768,9.072l14.08,2.048
	c5.416-3.64,10.648-7.544,15.736-11.616c-1.254-1.631-3.093-2.709-5.128-3.008L349.456,406.8z"/>
<path d="M332,435.144l-21.24-7.824c-4.147-1.527-8.745,0.597-10.272,4.744s0.597,8.745,4.744,10.272l13.336,4.912
	c6.08-2.448,12.027-5.141,17.84-8.08C335.513,437.308,333.933,435.866,332,435.144z"/>
<path d="M287.784,451.432l-19.152-12.048c-3.742-2.351-8.681-1.222-11.032,2.52c-2.35,3.742-1.222,8.681,2.52,11.032l12,7.536
	c6.488-1.128,12.888-2.488,19.2-4.144C290.826,454.297,289.557,452.539,287.784,451.432z"/>
<path d="M224.936,442.48c-3.172-3.077-8.239-3-11.316,0.172c-3.077,3.172-3,8.239,0.172,11.316l10.144,9.824
	c2.68,0.096,5.36,0.208,8.064,0.208c3.877,0,7.736-0.099,11.576-0.296c-0.054-2.068-0.916-4.032-2.4-5.472L224.936,442.48z"/>
<path d="M194.176,455.2l-12.64-18.768c-2.477-3.659-7.451-4.616-11.11-2.139c-3.645,2.468-4.611,7.417-2.162,11.075l7.952,11.8
	c6.296,1.6,12.688,2.872,19.2,3.896C195.785,459.022,195.34,456.917,194.176,455.2L194.176,455.2z"/>
<path d="M148.8,442.576l-8.472-20.976c-1.629-4.107-6.279-6.116-10.386-4.487c-4.107,1.629-6.116,6.279-4.487,10.386
	c0.013,0.034,0.027,0.067,0.041,0.1l5.344,13.224c5.84,2.84,11.84,5.392,17.944,7.736C149.57,446.644,149.576,444.496,148.8,442.576
	L148.8,442.576z"/>
<path d="M103.08,398.528c-0.628-4.373-4.682-7.41-9.055-6.782s-7.41,4.682-6.782,9.055c0.025,0.177,0.057,0.352,0.094,0.527
	l2.472,13.92c5.157,4.011,10.491,7.803,16,11.376c1.155-1.703,1.603-3.789,1.248-5.816L103.08,398.528z"/>
<path d="M71.416,368.256c0.144-4.416-3.32-8.112-7.736-8.256c0,0,0,0,0,0c-4.3-0.252-7.991,3.03-8.243,7.33
	c-0.008,0.132-0.012,0.265-0.013,0.398l-0.456,14.136c4.232,5.008,8.648,9.848,13.288,14.472c1.477-1.446,2.337-3.406,2.4-5.472
	L71.416,368.256z"/>
<path d="M41.304,354.056l5.4-21.976c1.33-4.213-1.007-8.707-5.22-10.038c-4.213-1.33-8.707,1.007-10.038,5.22
	c-0.104,0.328-0.186,0.663-0.247,1.002l-3.44,13.848c3.096,5.728,6.464,11.288,10.008,16.712
	C39.524,357.757,40.793,356.046,41.304,354.056L41.304,354.056z"/>
<path d="M20.176,312l9.832-20.384c1.781-4.043-0.052-8.765-4.096-10.546c-3.846-1.694-8.347-0.124-10.304,3.594l-6.176,12.8
	c1.851,6.288,3.952,12.456,6.304,18.504C17.677,315.275,19.271,313.851,20.176,312z"/>
<path d="M22.048,248.496c2.702-3.497,2.057-8.522-1.44-11.224c-3.497-2.702-8.522-2.057-11.224,1.44l-8.632,11.2
	c0.504,6.528,1.24,12.992,2.264,19.368c2.04-0.236,3.907-1.261,5.2-2.856L22.048,248.496z"/>
<path d="M5.944,219.352L23.2,204.696c3.365-2.872,3.764-7.927,0.892-11.292c-2.872-3.365-7.927-3.764-11.292-0.892l-10.76,9.16
	c-0.8,6.4-1.464,12.912-1.768,19.488c0.168,0,0.32,0.104,0.488,0.104C2.66,221.263,4.498,220.585,5.944,219.352z"/>
<path d="M13.448,172.856l19.896-10.768c3.89-2.103,5.339-6.962,3.236-10.852c-2.103-3.89-6.962-5.339-10.852-3.236l0,0l-12.52,6.776
	c-2.16,6.128-4.104,12.36-5.76,18.712c0.715,0.207,1.455,0.315,2.2,0.32C10.974,173.811,12.28,173.483,13.448,172.856
	L13.448,172.856z"/>
<path d="M30.4,128.92l21.696-6.4c4.161-1.486,6.329-6.064,4.842-10.225c-1.371-3.836-5.405-6.03-9.37-5.095l-13.656,4
	c-3.384,5.528-6.496,11.24-9.416,17.064c1.115,0.621,2.364,0.961,3.64,0.992C28.903,129.253,29.665,129.14,30.4,128.92L30.4,128.92z
	"/>
<path d="M56.096,89.448l22.56-1.792c4.418-0.349,7.717-4.214,7.368-8.632c-0.349-4.418-4.214-7.717-8.632-7.368l-14.08,1.12
	c-4.485,4.752-8.768,9.688-12.848,14.808c1.402,1.172,3.165,1.825,4.992,1.848L56.096,89.448z"/>
<path d="M111.84,59.048c0.345,0.045,0.692,0.067,1.04,0.064c4.417-0.087,7.928-3.738,7.842-8.155
	c-0.077-3.905-2.962-7.184-6.826-7.757l-14.048-1.84c-5.376,3.736-10.616,7.648-15.648,11.816c1.281,1.627,3.147,2.689,5.2,2.96
	L111.84,59.048z"/>
<path d="M128.872,30.4l21.352,7.496c4.192,1.397,8.722-0.868,10.119-5.06c1.366-4.099-0.769-8.542-4.823-10.036l-13.488-4.736
	c-6.016,2.536-11.888,5.36-17.6,8.376C125.342,28.286,126.934,29.706,128.872,30.4z"/>
<path d="M172.8,13.464l19.336,11.744c1.248,0.762,2.682,1.164,4.144,1.16c4.418-0.001,7.999-3.584,7.998-8.002
	c-0.001-2.79-1.455-5.378-3.838-6.83l-12.136-7.368c-6.456,1.224-12.8,2.736-19.064,4.488
	C169.755,10.661,171.032,12.386,172.8,13.464z"/>
<g>
	<path style="fill:#1A1A1A;" d="M212,224c-6.627,0-12-5.373-12-12s5.373-12,12-12s12,5.373,12,12S218.627,224,212,224z M212,208
		c-2.209,0-4,1.791-4,4s1.791,4,4,4s4-1.791,4-4S214.209,208,212,208z"/>
	<path style="fill:#1A1A1A;" d="M252,224c-6.627,0-12-5.373-12-12s5.373-12,12-12s12,5.373,12,12S258.627,224,252,224z M252,208
		c-2.209,0-4,1.791-4,4s1.791,4,4,4s4-1.791,4-4S254.209,208,252,208z"/>
	<path style="fill:#1A1A1A;" d="M252,264c-6.627,0-12-5.373-12-12s5.373-12,12-12s12,5.373,12,12S258.627,264,252,264z M252,248
		c-2.209,0-4,1.791-4,4s1.791,4,4,4s4-1.791,4-4S254.209,248,252,248z"/>
	<path style="fill:#1A1A1A;" d="M212,264c-6.627,0-12-5.373-12-12s5.373-12,12-12s12,5.373,12,12S218.627,264,212,264z M212,248
		c-2.209,0-4,1.791-4,4s1.791,4,4,4s4-1.791,4-4S214.209,248,212,248z"/>
	<path style="fill:#1A1A1A;" d="M232,384c-83.947,0-152-68.053-152-152S148.053,80,232,80s152,68.053,152,152
		C383.907,315.909,315.909,383.907,232,384z M232,96c-75.111,0-136,60.889-136,136s60.889,136,136,136s136-60.889,136-136
		C367.916,156.924,307.076,96.084,232,96z"/>
</g>
<g>
</g>
<g>
</g>
<g>
</g>
<g>
</g>
<g>
</g>
<g>
</g>
<g>
</g>
<g>
</g>
<g>
</g>
<g>
</g>
<g>
</g>
<g>
</g>
<g>
</g>
<g>
</g>
<g>
</g>
</svg>
