<?xml version="1.0" encoding="iso-8859-1"?>
<!-- Generator: Adobe Illustrator 19.0.0, SVG Export Plug-In . SVG Version: 6.00 Build 0)  -->
<svg version="1.1" id="Capa_1" xmlns="http://www.w3.org/2000/svg" xmlns:xlink="http://www.w3.org/1999/xlink" x="0px" y="0px"
	 viewBox="0 0 464.295 464.295" style="enable-background:new 0 0 464.295 464.295;" xml:space="preserve">
<path style="fill:#ED1C24;" d="M56.147,280l-56-8V168l72-16l55.864-92.616L315.811,56l49.008,92.136L464.147,168v112h-72H56.147z"/>
<path style="fill:#603813;" d="M286.651,254.248l-46.504,10l25.568,95.296l45.84-13.432L286.651,254.248z"/>
<path style="fill:#42210B;" d="M335.403,434.088l-23.848-88l-45.808,13.456l23.2,86.4c3.123,12.882,16.098,20.792,28.979,17.669
	c12.882-3.123,20.792-16.098,17.669-28.979c-0.041-0.169-0.084-0.338-0.129-0.506L335.403,434.088z"/>
<circle style="fill:#29485A;" cx="232.147" cy="136" r="136"/>
<circle style="fill:#29ABE2;" cx="232.147" cy="136" r="112"/>
<path style="fill:#F2F2F2;" d="M288.587,205.928l-10.752-11.856c20.056-16.669,29.883-42.647,25.88-68.416
	c-5.342-27.981-24.404-51.397-50.72-62.304l6.304-14.704c31.318,13.076,53.947,41.043,60.2,74.4
	C324.48,154.188,312.743,185.655,288.587,205.928L288.587,205.928z"/>
<path style="fill:#333333;" d="M98.147,248h-98v24l56,8h40"/>
<path style="fill:#E6E6E6;" d="M464.147,184h-32v40h32"/>
<path style="fill:#871B20;" d="M0.147,184h40v24h-40"/>
<circle cx="96.147" cy="288" r="40"/>
<path style="fill:#E6E6E6;" d="M96.147,304c-8.837,0-16-7.163-16-16s7.163-16,16-16s16,7.163,16,16S104.984,304,96.147,304z"/>
<path style="fill:#333333;" d="M360.147,248v32h104v-32H360.147z"/>
<circle cx="360.147" cy="288" r="40"/>
<path style="fill:#E6E6E6;" d="M360.147,304c-8.837,0-16-7.163-16-16s7.163-16,16-16s16,7.163,16,16S368.984,304,360.147,304z"/>
<g>
</g>
<g>
</g>
<g>
</g>
<g>
</g>
<g>
</g>
<g>
</g>
<g>
</g>
<g>
</g>
<g>
</g>
<g>
</g>
<g>
</g>
<g>
</g>
<g>
</g>
<g>
</g>
<g>
</g>
</svg>
