<?xml version="1.0" encoding="iso-8859-1"?>
<!-- Generator: Adobe Illustrator 19.0.0, SVG Export Plug-In . SVG Version: 6.00 Build 0)  -->
<svg version="1.1" id="Capa_1" xmlns="http://www.w3.org/2000/svg" xmlns:xlink="http://www.w3.org/1999/xlink" x="0px" y="0px"
	 viewBox="0 0 464 464" style="enable-background:new 0 0 464 464;" xml:space="preserve">
<path style="fill:#ED1C24;" d="M264,300h40v-24v-32l-72-16l-48-48H48L0,228v64l32,8h64h104H264z"/>
<path style="fill:#333333;" d="M247,276h57v24h-57V276z"/>
<path style="fill:#ED1C24;" d="M224,228H112v72h112V228z"/>
<path style="fill:#0378A3;" d="M56,388H8v-56h328v56H216H56z"/>
<path style="fill:#29485A;" d="M432,388h32v-78.2c0.001-0.912-0.129-1.82-0.384-2.696l-23.44-80.96
	c-0.881-3.519-3.99-6.027-7.616-6.144H344c-4.644,0.246-8.218,4.195-8,8.84V388h32"/>
<path style="fill:#29ABE2;" d="M447.664,252H368v48h93.56L447.664,252z"/>
<g>
	<circle style="fill:#1A1A1A;" cx="88" cy="388" r="32"/>
	<circle style="fill:#1A1A1A;" cx="64" cy="300" r="32"/>
	<circle style="fill:#1A1A1A;" cx="232" cy="300" r="32"/>
	<circle style="fill:#1A1A1A;" cx="184" cy="388" r="32"/>
	<circle style="fill:#1A1A1A;" cx="400" cy="388" r="32"/>
</g>
<path style="fill:#F2F2F2;" d="M432,324h32v24h-32V324z"/>
<path style="fill:#333333;" d="M0,228h112v-48H48L0,228z"/>
<g>
	<path style="fill:#29ABE2;" d="M32,124h64v16H32V124z"/>
	<path style="fill:#29ABE2;" d="M296,164h64v16h-64V164z"/>
	<path style="fill:#29ABE2;" d="M264,164h16v16h-16V164z"/>
	<path style="fill:#29ABE2;" d="M0,124h16v16H0V124z"/>
	<path style="fill:#29ABE2;" d="M168,44h16v16h-16V44z"/>
	<path style="fill:#29ABE2;" d="M200,44h64v16h-64V44z"/>
</g>
<path style="fill:#CCCCCC;" d="M136,244h8v16h-8V244z"/>
<path style="fill:#06AAE9;" d="M112,228h120l-48-48h-72V228z"/>
<g>
</g>
<g>
</g>
<g>
</g>
<g>
</g>
<g>
</g>
<g>
</g>
<g>
</g>
<g>
</g>
<g>
</g>
<g>
</g>
<g>
</g>
<g>
</g>
<g>
</g>
<g>
</g>
<g>
</g>
</svg>
