<?xml version="1.0" encoding="iso-8859-1"?>
<!-- Generator: Adobe Illustrator 19.0.0, SVG Export Plug-In . SVG Version: 6.00 Build 0)  -->
<svg version="1.1" id="Capa_1" xmlns="http://www.w3.org/2000/svg" xmlns:xlink="http://www.w3.org/1999/xlink" x="0px" y="0px"
	 viewBox="0 0 464 464" style="enable-background:new 0 0 464 464;" xml:space="preserve">
<g>
	<path style="fill:#333333;" d="M88,208h48l0,0v32c0,4.418-3.582,8-8,8H96c-4.418,0-8-3.582-8-8V208L88,208z"/>
	<path style="fill:#333333;" d="M328,208h48l0,0v32c0,4.418-3.582,8-8,8h-32c-4.418,0-8-3.582-8-8V208L328,208z"/>
</g>
<path style="fill:#0378A3;" d="M172,36c6.978,6.977,8.06,17.911,2.584,26.12L168.288,72h34.008l6.352-9.88
	c5.473-8.21,4.391-19.141-2.584-26.12c-6.978-6.977-8.06-17.911-2.584-26.12L210.2,0h-34.088l-6.696,9.88
	C163.94,18.089,165.022,29.023,172,36z"/>
<path style="fill:#29ABE2;" d="M206.064,36c6.975,6.979,8.057,17.91,2.584,26.12L202.296,72h142.632
	c-1.035-1.355-1.846-2.868-2.4-4.48l-11.816-54.88c-1.583-7.372-8.1-12.638-15.64-12.64H210.2l-6.72,9.88
	C198.004,18.089,199.086,29.023,206.064,36L206.064,36z"/>
<path style="fill:#ED1C24;" d="M377.992,99.2l-30.304-24.24c-1.043-0.864-1.97-1.859-2.76-2.96H202.296l-0.96,1.504l0.96-1.504
	h-34.008l-0.952,1.504L168.288,72h-49.56c-0.863,1.321-1.917,2.507-3.128,3.52L86,99.192c-3.794,3.038-6.002,7.636-6,12.496V192
	c0,8.837,7.163,16,16,16h272c8.837,0,16-7.163,16-16v-80.312C383.997,106.829,381.787,102.234,377.992,99.2L377.992,99.2z"/>
<path style="fill:#29ABE2;" d="M174.584,62.12C180.06,53.911,178.978,42.977,172,36s-8.06-17.911-2.584-26.12L176.112,0H148.8
	c-7.498,0.001-13.989,5.209-15.616,12.528l-12,53.968c-0.473,1.977-1.32,3.846-2.496,5.504h49.6L174.584,62.12z"/>
<g>
	<path style="fill:#06AAE9;" d="M0,0h40v464H0V0z"/>
	<path style="fill:#06AAE9;" d="M424,0h40v464h-40V0z"/>
</g>
<g>
	<path style="fill:#29485A;" d="M136,264v40l-96,24v-64h56H136z"/>
	<path style="fill:#29485A;" d="M328,264v40l96,24v-64h-32H328z"/>
</g>
<path style="fill:#ED1C24;" d="M232,272l-64,56h32v80h64v-80h32L232,272z"/>
<g>
	<path style="fill:#0378A3;" d="M72,248h80v32H72V248z"/>
	<path style="fill:#0378A3;" d="M312,248h80v32h-80V248z"/>
</g>
<g>
	<circle style="fill:#F2F2F2;" cx="124" cy="132" r="20"/>
	<circle style="fill:#F2F2F2;" cx="340" cy="132" r="20"/>
	<path style="fill:#F2F2F2;" d="M184,112h96c4.418,0,8,3.582,8,8v24c0,4.418-3.582,8-8,8h-96c-4.418,0-8-3.582-8-8v-24
		C176,115.582,179.582,112,184,112z"/>
</g>
<path style="fill:#C1272D;" d="M80,176h304v16c0,8.837-7.163,16-16,16H96c-8.837,0-16-7.163-16-16V176z"/>
<g>
</g>
<g>
</g>
<g>
</g>
<g>
</g>
<g>
</g>
<g>
</g>
<g>
</g>
<g>
</g>
<g>
</g>
<g>
</g>
<g>
</g>
<g>
</g>
<g>
</g>
<g>
</g>
<g>
</g>
</svg>
